<mxfile host="Electron" modified="2023-06-28T05:48:58.694Z" agent="Mozilla/5.0 (Windows NT 10.0; Win64; x64) AppleWebKit/537.36 (KHTML, like Gecko) draw.io/21.5.0 Chrome/112.0.5615.204 Electron/24.5.1 Safari/537.36" etag="BlLQ_vkY5PjlpoBf7u8g" version="21.5.0" type="device">
  <diagram name="Page-1" id="aC1wJ57nRpoNyW2CxQW-">
    <mxGraphModel dx="1036" dy="654" grid="0" gridSize="10" guides="1" tooltips="1" connect="1" arrows="1" fold="1" page="1" pageScale="1" pageWidth="850" pageHeight="1100" math="0" shadow="0">
      <root>
        <mxCell id="0" />
        <mxCell id="1" parent="0" />
        <mxCell id="Xjw2OpOrbyf1CY0blpDt-1" value="Array" style="rounded=0;whiteSpace=wrap;html=1;fillColor=#ffe6cc;strokeColor=#d79b00;" vertex="1" parent="1">
          <mxGeometry x="60" y="110" width="450" height="30" as="geometry" />
        </mxCell>
        <mxCell id="Xjw2OpOrbyf1CY0blpDt-2" value="" style="rounded=1;whiteSpace=wrap;html=1;fillColor=#5CFF5C;" vertex="1" parent="1">
          <mxGeometry x="303" y="144" width="80" height="20" as="geometry" />
        </mxCell>
        <mxCell id="Xjw2OpOrbyf1CY0blpDt-4" value="" style="rounded=1;whiteSpace=wrap;html=1;fillColor=#FF6666;" vertex="1" parent="1">
          <mxGeometry x="383" y="144" width="40" height="20" as="geometry" />
        </mxCell>
        <mxCell id="Xjw2OpOrbyf1CY0blpDt-5" value="" style="rounded=1;whiteSpace=wrap;html=1;fillColor=#5CFF5C;" vertex="1" parent="1">
          <mxGeometry x="425" y="143" width="80" height="20" as="geometry" />
        </mxCell>
        <mxCell id="Xjw2OpOrbyf1CY0blpDt-6" value="" style="rounded=1;whiteSpace=wrap;html=1;fillColor=#FF6666;" vertex="1" parent="1">
          <mxGeometry x="505" y="143" width="40" height="20" as="geometry" />
        </mxCell>
        <mxCell id="Xjw2OpOrbyf1CY0blpDt-7" value="" style="rounded=1;whiteSpace=wrap;html=1;fillColor=#5CFF5C;" vertex="1" parent="1">
          <mxGeometry x="59" y="144" width="80" height="20" as="geometry" />
        </mxCell>
        <mxCell id="Xjw2OpOrbyf1CY0blpDt-8" value="" style="rounded=1;whiteSpace=wrap;html=1;fillColor=#FF6666;" vertex="1" parent="1">
          <mxGeometry x="139" y="144" width="40" height="20" as="geometry" />
        </mxCell>
        <mxCell id="Xjw2OpOrbyf1CY0blpDt-9" value="" style="rounded=1;whiteSpace=wrap;html=1;fillColor=#5CFF5C;" vertex="1" parent="1">
          <mxGeometry x="181" y="144" width="80" height="20" as="geometry" />
        </mxCell>
        <mxCell id="Xjw2OpOrbyf1CY0blpDt-10" value="" style="rounded=1;whiteSpace=wrap;html=1;fillColor=#FF6666;" vertex="1" parent="1">
          <mxGeometry x="261" y="144" width="40" height="20" as="geometry" />
        </mxCell>
        <mxCell id="Xjw2OpOrbyf1CY0blpDt-12" value="" style="endArrow=classic;startArrow=classic;html=1;rounded=0;" edge="1" parent="1">
          <mxGeometry width="50" height="50" relative="1" as="geometry">
            <mxPoint x="60" y="200" as="sourcePoint" />
            <mxPoint x="430" y="200" as="targetPoint" />
          </mxGeometry>
        </mxCell>
        <mxCell id="Xjw2OpOrbyf1CY0blpDt-13" value="" style="endArrow=classic;startArrow=classic;html=1;rounded=0;" edge="1" parent="1">
          <mxGeometry width="50" height="50" relative="1" as="geometry">
            <mxPoint x="427" y="199" as="sourcePoint" />
            <mxPoint x="550" y="199" as="targetPoint" />
          </mxGeometry>
        </mxCell>
        <mxCell id="Xjw2OpOrbyf1CY0blpDt-14" value="In-range Vector Load" style="text;html=1;strokeColor=none;fillColor=none;align=center;verticalAlign=middle;whiteSpace=wrap;rounded=0;fontStyle=1" vertex="1" parent="1">
          <mxGeometry x="180" y="203" width="160" height="30" as="geometry" />
        </mxCell>
        <mxCell id="Xjw2OpOrbyf1CY0blpDt-15" value="Out-of range vector Load" style="text;html=1;strokeColor=none;fillColor=none;align=center;verticalAlign=middle;whiteSpace=wrap;rounded=0;fontStyle=1" vertex="1" parent="1">
          <mxGeometry x="433" y="205" width="160" height="30" as="geometry" />
        </mxCell>
        <mxCell id="Xjw2OpOrbyf1CY0blpDt-19" value="We can support in-range predicated vector loads on non-predicated targets by loading full vector followed by blend with a zero vector.&lt;br&gt;&lt;br&gt;But, we cannot intrinsify an out-of range vector loads on non-predicated target since masked out memory may be out of process address space and a full vector load may result into a SEGMENT violation." style="text;html=1;strokeColor=none;fillColor=none;align=left;verticalAlign=middle;whiteSpace=wrap;rounded=0;" vertex="1" parent="1">
          <mxGeometry x="53" y="231" width="535" height="94" as="geometry" />
        </mxCell>
      </root>
    </mxGraphModel>
  </diagram>
</mxfile>
